<?xml version="1.0" encoding="UTF-8" standalone="no"?>
<svg
   xmlns:dc="http://purl.org/dc/elements/1.1/"
   xmlns:cc="http://creativecommons.org/ns#"
   xmlns:rdf="http://www.w3.org/1999/02/22-rdf-syntax-ns#"
   xmlns:svg="http://www.w3.org/2000/svg"
   xmlns="http://www.w3.org/2000/svg"
   viewBox="0 0 72.226669 59.16"
   height="59.16"
   width="72.226669"
   xml:space="preserve"
   id="svg2"
   version="1.1"><metadata
     id="metadata8"><rdf:RDF><cc:Work
         rdf:about=""><dc:format>image/svg+xml</dc:format><dc:type
           rdf:resource="http://purl.org/dc/dcmitype/StillImage" /></cc:Work></rdf:RDF></metadata><defs
     id="defs6" /><g
     transform="matrix(1.3333333,0,0,-1.3333333,0,59.16)"
     id="g10"><g
       transform="scale(0.1)"
       id="g12"><path
         id="path14"
         style="fill:#231f20;fill-opacity:1;fill-rule:nonzero;stroke:none"
         d="m 407.125,284.836 c -1.359,24.812 -4.004,51.219 -17.871,71.187 -27.305,39.211 -73.555,55.313 -118.371,54.942 C 226,410.566 179.73,395.234 152.555,356.023 c -13.867,-19.968 -16.563,-46.375 -17.91,-71.187 -1.008,-18.234 -1.692,-40.461 -1.758,-62.981 -0.098,-22.507 0.547,-44.765 1.472,-62.949 1.426,-24.902 4.329,-51.172 18.196,-71.2107 27.175,-39.2265 73.34,-54.582 118.328,-54.9336 44.933,-0.4101 91.066,15.7071 118.371,54.9336 13.867,20.0387 16.699,46.3087 18.027,71.2107 1.016,18.184 0.711,40.039 0.731,62.578 0.031,22.559 0.097,45.118 -0.887,63.352 M 535.797,148.457 C 526.684,90.4492 478.316,47.6563 422.535,26.2695 376.383,8.50781 323.695,-0.0507813 270.883,0 218.266,0.0976563 165.387,8.50781 119.195,26.2695 63.3438,47.6563 14.9961,90.4492 5.93359,148.457 2.35938,171.074 -0.09375,195.801 0.00390625,221.855 0.121094,247.883 2.35938,272.637 5.93359,295.332 14.9961,353.301 63.3438,396.023 119.195,417.488 c 46.192,17.688 99.071,26.094 151.688,26.211 52.812,0.039 105.5,-8.523 151.652,-26.211 55.781,-21.465 104.149,-64.187 113.262,-122.156 3.504,-22.695 5.887,-47.449 5.887,-73.477 0,-26.093 -2.383,-50.781 -5.887,-73.398" /></g></g></svg>